<svg width="600" height="180" viewBox="0 0 600 180" version="1.1" xmlns="http://www.w3.org/2000/svg" xmlns:xlink="http://www.w3.org/1999/xlink">
<title>Logo-loopsopt</title>
<desc>Created using Figma</desc>
<g id="Canvas" transform="matrix(3 0 0 3 -1572 -540)">
<g id="Logo-loopsopt">
<g id="logo">
<use xlink:href="#path0_fill" transform="translate(590 182)" fill="#FF5959"/>
</g>
<g id="favicon">
<g id="Ellipse">
<use xlink:href="#path1_fill" transform="translate(524 180)" fill="#FF5959"/>
</g>
<g id="logo-footer">
<use xlink:href="#path2_fill" transform="matrix(6.12323e-17 1 -1 6.12323e-17 568.571 201.429)" fill="#FFFFFF"/>
</g>
</g>
</g>
</g>
<defs>
<path id="path0_fill" d="M 6.84 36.16L 6.84 12L 2.8 12L 2.8 40L 16.12 40L 16.12 36.16L 6.84 36.16ZM 25.6463 40.48C 30.2463 40.48 33.0862 37.64 33.0862 32.48L 33.0862 26.4C 33.0862 21.24 30.2463 18.4 25.6463 18.4C 21.0862 18.4 18.2462 21.24 18.2462 26.4L 18.2462 32.48C 18.2462 37.64 21.0862 40.48 25.6463 40.48ZM 25.6463 36.72C 23.4863 36.72 22.1663 35.44 22.1663 32.48L 22.1663 26.4C 22.1663 23.44 23.4863 22.16 25.6463 22.16C 27.8463 22.16 29.1662 23.44 29.1662 26.4L 29.1662 32.48C 29.1662 35.44 27.8463 36.72 25.6463 36.72ZM 44.1619 40.48C 48.7619 40.48 51.6019 37.64 51.6019 32.48L 51.6019 26.4C 51.6019 21.24 48.7619 18.4 44.1619 18.4C 39.6019 18.4 36.7619 21.24 36.7619 26.4L 36.7619 32.48C 36.7619 37.64 39.6019 40.48 44.1619 40.48ZM 44.1619 36.72C 42.0019 36.72 40.6819 35.44 40.6819 32.48L 40.6819 26.4C 40.6819 23.44 42.0019 22.16 44.1619 22.16C 46.3619 22.16 47.6819 23.44 47.6819 26.4L 47.6819 32.48C 47.6819 35.44 46.3619 36.72 44.1619 36.72ZM 63.5975 18.44C 61.7175 18.44 59.8775 19.48 58.8375 20.84L 58.5575 18.88L 55.7575 18.88L 55.7575 47.2L 59.5575 47.2L 59.5575 38.8C 60.5975 39.88 62.0775 40.48 63.5975 40.48C 67.6775 40.48 70.3175 37.52 70.3175 32.4L 70.3175 26.6C 70.3175 21.44 67.5975 18.44 63.5975 18.44ZM 66.3575 32.4C 66.3575 35.48 65.1975 36.84 62.9575 36.84C 60.8375 36.84 59.5575 35.16 59.5575 32.4L 59.5575 26.56C 59.5575 23.56 60.9575 22.08 62.9575 22.08C 65.1175 22.08 66.3575 23.48 66.3575 26.6L 66.3575 32.4ZM 80.5094 40.44C 84.5494 40.44 87.1094 37.64 87.1094 33.96C 87.1094 25.76 74.8694 25.24 74.8694 17.84C 74.8694 14.56 77.2694 12.32 80.5094 12.32C 83.7094 12.32 85.7094 14.44 86.1094 18.2L 86.9094 18.2C 86.5894 14.12 84.1094 11.56 80.4694 11.56C 76.7894 11.56 74.0694 14.12 74.0694 17.84C 74.0694 25.8 86.3094 26.28 86.3094 33.96C 86.3094 37.2 84.1494 39.68 80.5494 39.68C 77.0694 39.68 75.1094 37.4 74.6694 33.76L 73.8694 33.76C 74.1894 37.64 76.4694 40.44 80.5094 40.44ZM 98.1119 18.8C 95.3519 18.8 93.2719 20.32 92.4319 22.88L 92.4319 19.2L 91.6719 19.2L 91.6719 47.2L 92.4319 47.2L 92.4319 37C 93.3119 39.08 95.5519 40.4 97.8319 40.4C 101.152 40.4 103.752 37.68 103.752 34L 103.752 25.2C 103.752 21.48 101.232 18.8 98.1119 18.8ZM 102.992 34C 102.992 37.36 100.672 39.68 97.7119 39.68C 94.7519 39.68 92.4319 37.32 92.4319 34.4L 92.4319 26C 92.4319 21.88 95.1919 19.52 97.9519 19.52C 100.792 19.52 102.992 21.84 102.992 25.2L 102.992 34ZM 114.85 40.4C 118.69 40.4 120.97 37.76 120.97 33.92L 120.97 25.28C 120.97 21.44 118.69 18.8 114.85 18.8C 111.01 18.8 108.73 21.44 108.73 25.28L 108.73 33.92C 108.73 37.76 111.01 40.4 114.85 40.4ZM 114.85 39.68C 111.49 39.68 109.49 37.32 109.49 33.92L 109.49 25.28C 109.49 21.88 111.49 19.52 114.85 19.52C 118.21 19.52 120.21 21.88 120.21 25.28L 120.21 33.92C 120.21 37.32 118.21 39.68 114.85 39.68ZM 132.477 39.36C 129.637 39.36 128.077 38.08 128.077 34.96L 128.077 19.92L 132.958 19.92L 132.958 19.2L 128.077 19.2L 128.077 14.28L 127.317 14.28L 127.317 19.2L 124.438 19.2L 124.438 19.92L 127.317 19.92L 127.317 34.96C 127.317 38.48 129.037 40.08 132.477 40.08L 133.197 40.08L 133.197 39.36L 132.477 39.36Z"/>
<path id="path1_fill" d="M 60 30C 60 46.5685 46.5685 60 30 60C 13.4315 60 0 46.5685 0 30C 0 13.4315 13.4315 0 30 0C 46.5685 0 60 13.4315 60 30Z"/>
<path id="path2_fill" d="M 8.57143 29.1429C 13.9386 29.1429 17.1429 25.5702 17.1429 19.7096L 17.1429 9.43329C 17.1429 3.57261 13.9386 0 8.57143 0C 3.20427 0 0 3.57261 0 9.43329L 0 19.7096C 0 25.5702 3.20427 29.1429 8.57143 29.1429ZM 8.57143 25.1688C 5.64753 25.1688 4.16555 23.242 4.16555 19.7096L 4.16555 9.43329C 4.16555 5.90083 5.64753 3.97403 8.57143 3.97403C 11.4553 3.97403 12.9773 5.90083 12.9773 9.43329L 12.9773 19.7096C 12.9773 23.242 11.4553 25.1688 8.57143 25.1688Z"/>
</defs>
</svg>
